<?xml version="1.0" encoding="UTF-8" standalone="no"?>
<!-- Created with Inkscape (http://www.inkscape.org/) -->

<svg
   width="1080"
   height="1080"
   viewBox="0 0 1080 1080"
   version="1.1"
   id="svg1"
   xml:space="preserve"
   inkscape:version="1.4.2 (f4327f4, 2025-05-13)"
   sodipodi:docname="gospeed_post.svg"
   inkscape:export-batch-path="X:\me\Code\gospeed\docs\assets"
   inkscape:export-batch-name="gospeed"
   xmlns:inkscape="http://www.inkscape.org/namespaces/inkscape"
   xmlns:sodipodi="http://sodipodi.sourceforge.net/DTD/sodipodi-0.dtd"
   xmlns:xlink="http://www.w3.org/1999/xlink"
   xmlns="http://www.w3.org/2000/svg"
   xmlns:svg="http://www.w3.org/2000/svg"><sodipodi:namedview
     id="namedview1"
     pagecolor="#505050"
     bordercolor="#eeeeee"
     borderopacity="1"
     inkscape:showpageshadow="0"
     inkscape:pageopacity="0"
     inkscape:pagecheckerboard="0"
     inkscape:deskcolor="#505050"
     inkscape:document-units="px"
     inkscape:zoom="0.54027778"
     inkscape:cx="1138.3033"
     inkscape:cy="441.43959"
     inkscape:window-width="2560"
     inkscape:window-height="1369"
     inkscape:window-x="1072"
     inkscape:window-y="-8"
     inkscape:window-maximized="1"
     inkscape:current-layer="layer1"><inkscape:page
       x="0"
       y="0"
       width="1080"
       height="1080"
       id="page1"
       margin="0"
       bleed="0"
       inkscape:label="slogan" /><inkscape:page
       x="1094.3676"
       y="0"
       width="1080"
       height="1080"
       id="page5"
       margin="0"
       bleed="0"
       inkscape:label="workmark" /></sodipodi:namedview><defs
     id="defs1"><rect
       x="318.35475"
       y="260.97686"
       width="521.71059"
       height="194.91848"
       id="rect6" /><linearGradient
       id="linearGradient1"
       inkscape:collect="always"><stop
         style="stop-color:#293a3e;stop-opacity:1;"
         offset="0"
         id="stop1" /><stop
         style="stop-color:#182323;stop-opacity:1;"
         offset="1"
         id="stop2" /></linearGradient><inkscape:path-effect
       effect="offset"
       id="path-effect23"
       is_visible="true"
       lpeversion="1.3"
       linejoin_type="miter"
       unit="mm"
       offset="3.5"
       miter_limit="4"
       attempt_force_join="true"
       update_on_knot_move="true" /><inkscape:path-effect
       effect="offset"
       id="path-effect21"
       is_visible="true"
       lpeversion="1.3"
       linejoin_type="miter"
       unit="mm"
       offset="3.5"
       miter_limit="4"
       attempt_force_join="true"
       update_on_knot_move="true" /><inkscape:path-effect
       effect="offset"
       id="path-effect20"
       is_visible="true"
       lpeversion="1.3"
       linejoin_type="miter"
       unit="mm"
       offset="3.5"
       miter_limit="4"
       attempt_force_join="true"
       update_on_knot_move="true" /><inkscape:path-effect
       effect="offset"
       id="path-effect18"
       is_visible="true"
       lpeversion="1.3"
       linejoin_type="miter"
       unit="mm"
       offset="3.5"
       miter_limit="4"
       attempt_force_join="true"
       update_on_knot_move="true" /><radialGradient
       inkscape:collect="always"
       xlink:href="#linearGradient1"
       id="radialGradient2"
       cx="2714.3677"
       cy="1108.0121"
       fx="2714.3677"
       fy="1108.0121"
       r="540.5"
       gradientUnits="userSpaceOnUse"
       spreadMethod="pad" /></defs><g
     inkscape:label="Layer 1"
     inkscape:groupmode="layer"
     id="layer1"
     transform="translate(-1080,-568.01215)"><rect
       style="fill:#00add8;stroke:#000000"
       id="rect4"
       width="1080"
       height="1080"
       x="1080"
       y="568.01215" /><rect
       style="fill:url(#radialGradient2);stroke:#000000;fill-opacity:1;fill-rule:nonzero"
       id="rect5"
       width="1080"
       height="1080"
       x="2174.3677"
       y="568.01215" /><text
       xml:space="preserve"
       transform="matrix(1.2568795,0,0,1.2568795,904.88383,601.69367)"
       id="text4"
       style="font-style:normal;font-variant:normal;font-weight:800;font-stretch:normal;font-size:76.3796px;font-family:'Work Sans';-inkscape-font-specification:'Work Sans Ultra-Bold';text-align:start;letter-spacing:2.78467px;word-spacing:0px;writing-mode:lr-tb;direction:ltr;white-space:pre;shape-inside:url(#rect6);display:inline;fill:#ffffff;fill-opacity:1;fill-rule:nonzero"
       x="-117.99986"
       y="0"><tspan
         x="318.35547"
         y="331.08073"
         id="tspan6">KNOW YOUR </tspan><tspan
         x="318.35547"
         y="426.55522"
         id="tspan7">NETWORK .</tspan></text></g><g
     inkscape:label="Layer 1"
     inkscape:groupmode="layer"
     id="layer1-8"
     style="display:inline"
     transform="translate(10,-568.01215)"><g
       id="g5"
       transform="translate(38.749023,18)"><circle
         style="fill:#ffffff;fill-opacity:1;stroke:none;stroke-width:1.5;stroke-dasharray:none;stroke-opacity:1"
         id="path31"
         cx="1585.6185"
         cy="1009.3162"
         r="169" /><g
         id="g28"
         transform="matrix(0.77596658,0,0,0.77596658,1398.841,805.17305)"
         style="display:inline;fill:#00add8;fill-opacity:1"><path
           d="m 231.23242,373.11133 -35.07812,53.91406 a 169.77875,169.77875 0 0 0 44.70898,5.99219 169.77875,169.77875 0 0 0 169.7793,-169.7793 169.77875,169.77875 0 0 0 -1.33008,-21.21484 H 349.09766 316.5293 l -33.89063,52.08398 H 346.75 a 110.29443,110.29443 0 0 1 -105.88672,79.42578 110.29443,110.29443 0 0 1 -9.62891,-0.42187 z"
           style="display:inline;fill:#00add8;fill-opacity:1;stroke-width:1.5"
           id="path28" /><path
           d="M 313.6875,78.818359 V 109.87305 A 169.77875,169.77875 0 0 0 283.99609,99.267578 l -13.36914,57.769532 a 110.29443,110.29443 0 0 1 43.06055,23.36914 v 26.82812 l 77.46484,-64.20703 z"
           style="display:inline;fill:#00add8;fill-opacity:1;stroke-width:1.5"
           id="path27" /><path
           d="M 248.52539,153.21094 283.91602,99.244141 A 169.77875,169.77875 0 0 0 240.86328,93.460937 169.77875,169.77875 0 0 0 71.085937,263.23828 169.77875,169.77875 0 0 0 184.42187,423.36133 l 11.61915,-59.34571 a 110.29443,110.29443 0 0 1 -65.47266,-100.77734 110.29443,110.29443 0 0 1 110.29492,-110.29297 110.29443,110.29443 0 0 1 7.66016,0.26563 z"
           style="display:inline;fill:#00add8;fill-opacity:1;stroke-width:1.5"
           id="path26" /><path
           style="display:inline;fill:#00add8;fill-opacity:1;stroke:none;stroke-width:1.5;stroke-dasharray:none;stroke-opacity:1"
           d="m 244.37361,240.86375 h 57.03513 l -97.83719,150.04628 25.44644,-108.36676 h -57.03513 l 96.95973,-147.85261 z"
           id="path20" /></g></g><g
       id="g10"
       transform="matrix(0.21178551,0,0,0.21178551,50.073747,1486.8183)"
       style="display:inline;fill:#ffffff;fill-opacity:1"><path
         d="m 231.23242,373.11133 -35.07812,53.91406 a 169.77875,169.77875 0 0 0 44.70898,5.99219 169.77875,169.77875 0 0 0 169.7793,-169.7793 169.77875,169.77875 0 0 0 -1.33008,-21.21484 H 349.09766 316.5293 l -33.89063,52.08398 H 346.75 a 110.29443,110.29443 0 0 1 -105.88672,79.42578 110.29443,110.29443 0 0 1 -9.62891,-0.42187 z"
         style="display:inline;fill:#ffffff;fill-opacity:1;stroke-width:1.5"
         id="path7" /><path
         d="M 313.6875,78.818359 V 109.87305 A 169.77875,169.77875 0 0 0 283.99609,99.267578 l -13.36914,57.769532 a 110.29443,110.29443 0 0 1 43.06055,23.36914 v 26.82812 l 77.46484,-64.20703 z"
         style="display:inline;fill:#ffffff;fill-opacity:1;stroke-width:1.5"
         id="path8" /><path
         d="M 248.52539,153.21094 283.91602,99.244141 A 169.77875,169.77875 0 0 0 240.86328,93.460937 169.77875,169.77875 0 0 0 71.085937,263.23828 169.77875,169.77875 0 0 0 184.42187,423.36133 l 11.61915,-59.34571 a 110.29443,110.29443 0 0 1 -65.47266,-100.77734 110.29443,110.29443 0 0 1 110.29492,-110.29297 110.29443,110.29443 0 0 1 7.66016,0.26563 z"
         style="display:inline;fill:#ffffff;fill-opacity:1;stroke-width:1.5"
         id="path9" /><path
         style="display:inline;fill:#ffffff;fill-opacity:1;stroke:none;stroke-width:1.5;stroke-dasharray:none;stroke-opacity:1"
         d="m 244.37361,240.86375 h 57.03513 l -97.83719,150.04628 25.44644,-108.36676 h -57.03513 l 96.95973,-147.85261 z"
         id="path10" /></g><text
       xml:space="preserve"
       style="font-size:133.333px;text-align:center;writing-mode:lr-tb;direction:ltr;text-anchor:middle;fill:#00add8;fill-opacity:1;stroke:none"
       x="1624.3676"
       y="1355.5392"
       id="text5"><tspan
         sodipodi:role="line"
         id="tspan5"
         x="1624.3676"
         y="1355.5392"
         style="font-style:normal;font-variant:normal;font-weight:600;font-stretch:normal;font-size:133.333px;font-family:'Work Sans';-inkscape-font-specification:'Work Sans Semi-Bold';fill:#00add8;fill-opacity:1">GO<tspan
   style="fill:#ffffff"
   id="tspan1">SPEED</tspan></tspan></text><text
       xml:space="preserve"
       style="font-size:66.281px;text-align:center;writing-mode:lr-tb;direction:ltr;text-anchor:middle;fill:#1b2727;fill-opacity:1;stroke:none;stroke-width:0.497108"
       x="316.50275"
       y="1562.8907"
       id="text3"><tspan
         sodipodi:role="line"
         id="tspan3"
         x="316.50275"
         y="1562.8907"
         style="font-style:normal;font-variant:normal;font-weight:600;font-stretch:normal;font-size:66.281px;font-family:'Work Sans';-inkscape-font-specification:'Work Sans Semi-Bold';fill:#1b2727;fill-opacity:1;stroke-width:0.497108"><tspan
           style="fill:#161d1d;fill-opacity:1;stroke-width:0.497108"
           id="tspan4">GO</tspan><tspan
           style="fill:#ffffff;fill-opacity:1;stroke-width:0.497108"
           id="tspan2">SPEED</tspan></tspan></text></g></svg>
