<?xml version="1.0" encoding="UTF-8" standalone="no"?>
<!-- Created with Inkscape (http://www.inkscape.org/) -->

<svg
   width="512"
   height="512"
   viewBox="0 0 512 512"
   version="1.1"
   id="svg1"
   xml:space="preserve"
   inkscape:version="1.4.2 (f4327f4, 2025-05-13)"
   sodipodi:docname="logo_master_v1.svg"
   inkscape:export-batch-path="X:\me\Code\gospeed\docs\assets"
   inkscape:export-batch-name="logo_"
   xmlns:inkscape="http://www.inkscape.org/namespaces/inkscape"
   xmlns:sodipodi="http://sodipodi.sourceforge.net/DTD/sodipodi-0.dtd"
   xmlns="http://www.w3.org/2000/svg"
   xmlns:svg="http://www.w3.org/2000/svg"><sodipodi:namedview
     id="namedview1"
     pagecolor="#505050"
     bordercolor="#eeeeee"
     borderopacity="1"
     inkscape:showpageshadow="false"
     inkscape:pageopacity="0"
     inkscape:pagecheckerboard="false"
     inkscape:deskcolor="#505050"
     inkscape:document-units="px"
     inkscape:zoom="0.90509668"
     inkscape:cx="543.03591"
     inkscape:cy="158.5466"
     inkscape:window-width="2560"
     inkscape:window-height="1369"
     inkscape:window-x="1072"
     inkscape:window-y="-8"
     inkscape:window-maximized="1"
     inkscape:current-layer="layer1"
     labelstyle="default"
     inkscape:clip-to-page="false"
     inkscape:antialias-rendering="true"
     showguides="true"><sodipodi:guide
       position="0,425"
       orientation="0,1"
       id="guide28"
       inkscape:locked="false"
       inkscape:label=""
       inkscape:color="rgb(0,134,229)" /><sodipodi:guide
       position="425,0"
       orientation="-1,0"
       id="guide29"
       inkscape:locked="false"
       inkscape:label=""
       inkscape:color="rgb(0,134,229)" /><sodipodi:guide
       position="512,87"
       orientation="0,1"
       id="guide30"
       inkscape:locked="false"
       inkscape:label=""
       inkscape:color="rgb(0,134,229)" /><sodipodi:guide
       position="87,0"
       orientation="-1,0"
       id="guide31"
       inkscape:locked="false"
       inkscape:label=""
       inkscape:color="rgb(0,134,229)" /><inkscape:page
       x="0"
       y="0"
       width="512"
       height="512"
       id="page1"
       margin="0"
       bleed="0"
       inkscape:label="light" /><inkscape:page
       x="522"
       y="0"
       width="512"
       height="512"
       id="page2"
       margin="0"
       bleed="0"
       inkscape:label="dark" /><sodipodi:guide
       position="609,476.0625"
       orientation="-1,0"
       id="guide2"
       inkscape:locked="false"
       inkscape:label=""
       inkscape:color="rgb(0,134,229)" /><sodipodi:guide
       position="947,457.3125"
       orientation="-1,0"
       id="guide3"
       inkscape:locked="false"
       inkscape:label=""
       inkscape:color="rgb(0,134,229)" /><inkscape:page
       x="1044"
       y="0"
       width="512"
       height="512"
       id="page6"
       margin="0"
       bleed="0"
       inkscape:label="icon" /><sodipodi:guide
       position="1168.2577,255.87904"
       orientation="1,0"
       id="guide6"
       inkscape:locked="false" /><sodipodi:guide
       position="1431.7423,272.34104"
       orientation="1,0"
       id="guide7"
       inkscape:locked="false" /></sodipodi:namedview><defs
     id="defs1"><inkscape:path-effect
       effect="offset"
       id="path-effect23"
       is_visible="true"
       lpeversion="1.3"
       linejoin_type="miter"
       unit="mm"
       offset="3.5"
       miter_limit="4"
       attempt_force_join="true"
       update_on_knot_move="true" /><inkscape:path-effect
       effect="offset"
       id="path-effect21"
       is_visible="true"
       lpeversion="1.3"
       linejoin_type="miter"
       unit="mm"
       offset="3.5"
       miter_limit="4"
       attempt_force_join="true"
       update_on_knot_move="true" /><inkscape:path-effect
       effect="offset"
       id="path-effect20"
       is_visible="true"
       lpeversion="1.3"
       linejoin_type="miter"
       unit="mm"
       offset="3.5"
       miter_limit="4"
       attempt_force_join="true"
       update_on_knot_move="true" /><inkscape:path-effect
       effect="offset"
       id="path-effect18"
       is_visible="true"
       lpeversion="1.3"
       linejoin_type="miter"
       unit="mm"
       offset="3.5"
       miter_limit="4"
       attempt_force_join="true"
       update_on_knot_move="true" /></defs><g
     inkscape:label="Layer 1"
     inkscape:groupmode="layer"
     id="layer1"
     style="display:inline"><circle
       style="fill:#ffffff;fill-opacity:1;stroke:none;stroke-width:1.5;stroke-dasharray:none;stroke-opacity:1"
       id="path31"
       cx="256"
       cy="256"
       r="169" /><g
       id="g28"
       transform="matrix(0.77596658,0,0,0.77596658,69.22249,51.856854)"
       style="display:inline;fill:#00add8;fill-opacity:1"><path
         d="m 231.23242,373.11133 -35.07812,53.91406 a 169.77875,169.77875 0 0 0 44.70898,5.99219 169.77875,169.77875 0 0 0 169.7793,-169.7793 169.77875,169.77875 0 0 0 -1.33008,-21.21484 H 349.09766 316.5293 l -33.89063,52.08398 H 346.75 a 110.29443,110.29443 0 0 1 -105.88672,79.42578 110.29443,110.29443 0 0 1 -9.62891,-0.42187 z"
         style="display:inline;fill:#00add8;stroke-width:1.5;fill-opacity:1"
         id="path28" /><path
         d="M 313.6875,78.818359 V 109.87305 A 169.77875,169.77875 0 0 0 283.99609,99.267578 l -13.36914,57.769532 a 110.29443,110.29443 0 0 1 43.06055,23.36914 v 26.82812 l 77.46484,-64.20703 z"
         style="display:inline;fill:#00add8;stroke-width:1.5;fill-opacity:1"
         id="path27" /><path
         d="M 248.52539,153.21094 283.91602,99.244141 A 169.77875,169.77875 0 0 0 240.86328,93.460937 169.77875,169.77875 0 0 0 71.085937,263.23828 169.77875,169.77875 0 0 0 184.42187,423.36133 l 11.61915,-59.34571 a 110.29443,110.29443 0 0 1 -65.47266,-100.77734 110.29443,110.29443 0 0 1 110.29492,-110.29297 110.29443,110.29443 0 0 1 7.66016,0.26563 z"
         style="display:inline;fill:#00add8;stroke-width:1.5;fill-opacity:1"
         id="path26" /><path
         style="display:inline;fill:#00add8;fill-opacity:1;stroke:none;stroke-width:1.5;stroke-dasharray:none;stroke-opacity:1"
         d="m 244.37361,240.86375 h 57.03513 l -97.83719,150.04628 25.44644,-108.36676 h -57.03513 l 96.95973,-147.85261 z"
         id="path20" /></g><circle
       style="fill:#212e31;fill-opacity:1;stroke:none;stroke-width:1.5;stroke-dasharray:none;stroke-opacity:1"
       id="circle3"
       cx="778"
       cy="256"
       r="169" /><g
       id="g6"
       transform="matrix(0.77596658,0,0,0.77596658,591.22249,51.856854)"
       style="display:inline;fill:#00add8;fill-opacity:1;fill-rule:nonzero"><path
         d="m 231.23242,373.11133 -35.07812,53.91406 a 169.77875,169.77875 0 0 0 44.70898,5.99219 169.77875,169.77875 0 0 0 169.7793,-169.7793 169.77875,169.77875 0 0 0 -1.33008,-21.21484 H 349.09766 316.5293 l -33.89063,52.08398 H 346.75 a 110.29443,110.29443 0 0 1 -105.88672,79.42578 110.29443,110.29443 0 0 1 -9.62891,-0.42187 z"
         style="display:inline;fill:#00add8;stroke-width:1.5;fill-opacity:1;fill-rule:nonzero"
         id="path3" /><path
         d="M 313.6875,78.818359 V 109.87305 A 169.77875,169.77875 0 0 0 283.99609,99.267578 l -13.36914,57.769532 a 110.29443,110.29443 0 0 1 43.06055,23.36914 v 26.82812 l 77.46484,-64.20703 z"
         style="display:inline;fill:#00add8;stroke-width:1.5;fill-opacity:1;fill-rule:nonzero"
         id="path4" /><path
         d="M 248.52539,153.21094 283.91602,99.244141 A 169.77875,169.77875 0 0 0 240.86328,93.460937 169.77875,169.77875 0 0 0 71.085937,263.23828 169.77875,169.77875 0 0 0 184.42187,423.36133 l 11.61915,-59.34571 a 110.29443,110.29443 0 0 1 -65.47266,-100.77734 110.29443,110.29443 0 0 1 110.29492,-110.29297 110.29443,110.29443 0 0 1 7.66016,0.26563 z"
         style="display:inline;fill:#00add8;stroke-width:1.5;fill-opacity:1;fill-rule:nonzero"
         id="path5" /><path
         style="display:inline;fill:#00add8;fill-opacity:1;stroke:none;stroke-width:1.5;stroke-dasharray:none;stroke-opacity:1;fill-rule:nonzero"
         d="m 244.37361,240.86375 h 57.03513 l -97.83719,150.04628 25.44644,-108.36676 h -57.03513 l 96.95973,-147.85261 z"
         id="path6" /></g><g
       id="g10"
       transform="matrix(0.77596658,0,0,0.77596658,1113.0974,51.856854)"
       style="display:inline;fill:#00add8;fill-opacity:1"><path
         d="m 231.23242,373.11133 -35.07812,53.91406 a 169.77875,169.77875 0 0 0 44.70898,5.99219 169.77875,169.77875 0 0 0 169.7793,-169.7793 169.77875,169.77875 0 0 0 -1.33008,-21.21484 H 349.09766 316.5293 l -33.89063,52.08398 H 346.75 a 110.29443,110.29443 0 0 1 -105.88672,79.42578 110.29443,110.29443 0 0 1 -9.62891,-0.42187 z"
         style="display:inline;fill:#00add8;fill-opacity:1;stroke-width:1.5"
         id="path7" /><path
         d="M 313.6875,78.818359 V 109.87305 A 169.77875,169.77875 0 0 0 283.99609,99.267578 l -13.36914,57.769532 a 110.29443,110.29443 0 0 1 43.06055,23.36914 v 26.82812 l 77.46484,-64.20703 z"
         style="display:inline;fill:#00add8;fill-opacity:1;stroke-width:1.5"
         id="path8" /><path
         d="M 248.52539,153.21094 283.91602,99.244141 A 169.77875,169.77875 0 0 0 240.86328,93.460937 169.77875,169.77875 0 0 0 71.085937,263.23828 169.77875,169.77875 0 0 0 184.42187,423.36133 l 11.61915,-59.34571 a 110.29443,110.29443 0 0 1 -65.47266,-100.77734 110.29443,110.29443 0 0 1 110.29492,-110.29297 110.29443,110.29443 0 0 1 7.66016,0.26563 z"
         style="display:inline;fill:#00add8;fill-opacity:1;stroke-width:1.5"
         id="path9" /><path
         style="display:inline;fill:#00add8;fill-opacity:1;stroke:none;stroke-width:1.5;stroke-dasharray:none;stroke-opacity:1"
         d="m 244.37361,240.86375 h 57.03513 l -97.83719,150.04628 25.44644,-108.36676 h -57.03513 l 96.95973,-147.85261 z"
         id="path10" /></g></g></svg>
